<svg xmlns="http://www.w3.org/2000/svg" viewBox="0 0 240 108" shape-rendering="crispEdges" preserveAspectRatio="xMidYMid slice"><rect width="240" height="108" fill="#0e0406"/><rect x="0" y="76" width="240" height="32" fill="#3a0a0a" opacity="0.45"/><rect x="0" y="88" width="240" height="20" fill="#5a0c0c" opacity="0.45"/><rect x="0" y="98" width="240" height="10" fill="#8a1818" opacity="0.35"/><rect x="0" y="0" width="240" height="36" fill="#000000" opacity="0.4"/><rect x="17" y="92" width="2" height="1" fill="#ffe06b"/><rect x="17" y="93" width="3" height="1" fill="#ffaa22"/><rect x="17" y="94" width="4" height="1" fill="#ff6b1a"/><rect x="17" y="95" width="5" height="1" fill="#ff4a1a"/><rect x="17" y="96" width="6" height="1" fill="#ff4a1a"/><rect x="18" y="96" width="3" height="1" fill="#ffe06b"/><rect x="17" y="97" width="6" height="1" fill="#ffaa22"/><rect x="16" y="98" width="8" height="1" fill="#d62828"/><rect x="18" y="98" width="4" height="1" fill="#ff6b1a"/><rect x="16" y="99" width="8" height="1" fill="#d62828"/><rect x="18" y="99" width="4" height="1" fill="#ff4a1a"/><rect x="15" y="100" width="10" height="1" fill="#aa1010"/><rect x="17" y="100" width="6" height="1" fill="#d62828"/><rect x="15" y="101" width="10" height="1" fill="#aa1010"/><rect x="16" y="102" width="8" height="1" fill="#aa1010"/><rect x="16" y="103" width="8" height="1" fill="#aa1010"/><rect x="17" y="104" width="6" height="1" fill="#701010"/><rect x="18" y="105" width="4" height="1" fill="#701010"/><rect x="19" y="106" width="2" height="1" fill="#701010"/><rect x="52" y="101" width="2" height="1" fill="#ff4a1a"/><rect x="51" y="102" width="4" height="1" fill="#d62828"/><rect x="51" y="103" width="4" height="1" fill="#aa1010"/><rect x="52" y="104" width="2" height="1" fill="#701010"/><rect x="65" y="98" width="2" height="1" fill="#ff6b1a"/><rect x="64" y="99" width="4" height="1" fill="#ff4a1a"/><rect x="65" y="100" width="2" height="1" fill="#ffaa22"/><rect x="63" y="100" width="2" height="1" fill="#d62828"/><rect x="67" y="100" width="2" height="1" fill="#d62828"/><rect x="63" y="101" width="6" height="1" fill="#d62828"/><rect x="65" y="101" width="2" height="1" fill="#ff6b1a"/><rect x="63" y="102" width="6" height="1" fill="#aa1010"/><rect x="63" y="103" width="6" height="1" fill="#aa1010"/><rect x="64" y="104" width="4" height="1" fill="#701010"/><rect x="65" y="105" width="2" height="1" fill="#701010"/><rect x="65" y="106" width="2" height="1" fill="#701010"/><rect x="92" y="90" width="2" height="1" fill="#ffe06b"/><rect x="92" y="91" width="2" height="1" fill="#ffaa22"/><rect x="91" y="92" width="4" height="1" fill="#ff6b1a"/><rect x="91" y="93" width="4" height="1" fill="#ff4a1a"/><rect x="90" y="94" width="6" height="1" fill="#ff4a1a"/><rect x="92" y="94" width="2" height="1" fill="#ffe06b"/><rect x="90" y="95" width="6" height="1" fill="#ffaa22"/><rect x="89" y="96" width="8" height="1" fill="#d62828"/><rect x="91" y="96" width="4" height="1" fill="#ff6b1a"/><rect x="89" y="97" width="8" height="1" fill="#d62828"/><rect x="91" y="97" width="4" height="1" fill="#ff4a1a"/><rect x="88" y="98" width="10" height="1" fill="#aa1010"/><rect x="90" y="98" width="6" height="1" fill="#d62828"/><rect x="88" y="99" width="10" height="1" fill="#aa1010"/><rect x="91" y="99" width="4" height="1" fill="#d62828"/><rect x="89" y="100" width="8" height="1" fill="#aa1010"/><rect x="89" y="101" width="8" height="1" fill="#aa1010"/><rect x="90" y="102" width="6" height="1" fill="#701010"/><rect x="91" y="103" width="4" height="1" fill="#701010"/><rect x="92" y="104" width="2" height="1" fill="#701010"/><rect x="117" y="100" width="2" height="1" fill="#ff4a1a"/><rect x="116" y="101" width="4" height="1" fill="#d62828"/><rect x="116" y="102" width="4" height="1" fill="#aa1010"/><rect x="117" y="103" width="2" height="1" fill="#701010"/><rect x="134" y="92" width="2" height="1" fill="#ffe06b"/><rect x="133" y="93" width="3" height="1" fill="#ffaa22"/><rect x="132" y="94" width="4" height="1" fill="#ff6b1a"/><rect x="131" y="95" width="5" height="1" fill="#ff4a1a"/><rect x="130" y="96" width="6" height="1" fill="#ff4a1a"/><rect x="132" y="96" width="3" height="1" fill="#ffe06b"/><rect x="130" y="97" width="6" height="1" fill="#ffaa22"/><rect x="129" y="98" width="8" height="1" fill="#d62828"/><rect x="131" y="98" width="4" height="1" fill="#ff6b1a"/><rect x="129" y="99" width="8" height="1" fill="#d62828"/><rect x="131" y="99" width="4" height="1" fill="#ff4a1a"/><rect x="128" y="100" width="10" height="1" fill="#aa1010"/><rect x="130" y="100" width="6" height="1" fill="#d62828"/><rect x="128" y="101" width="10" height="1" fill="#aa1010"/><rect x="129" y="102" width="8" height="1" fill="#aa1010"/><rect x="129" y="103" width="8" height="1" fill="#aa1010"/><rect x="130" y="104" width="6" height="1" fill="#701010"/><rect x="131" y="105" width="4" height="1" fill="#701010"/><rect x="132" y="106" width="2" height="1" fill="#701010"/><rect x="163" y="97" width="2" height="1" fill="#ff6b1a"/><rect x="162" y="98" width="4" height="1" fill="#ff4a1a"/><rect x="163" y="99" width="2" height="1" fill="#ffaa22"/><rect x="161" y="99" width="2" height="1" fill="#d62828"/><rect x="165" y="99" width="2" height="1" fill="#d62828"/><rect x="161" y="100" width="6" height="1" fill="#d62828"/><rect x="163" y="100" width="2" height="1" fill="#ff6b1a"/><rect x="161" y="101" width="6" height="1" fill="#aa1010"/><rect x="161" y="102" width="6" height="1" fill="#aa1010"/><rect x="162" y="103" width="4" height="1" fill="#701010"/><rect x="163" y="104" width="2" height="1" fill="#701010"/><rect x="163" y="105" width="2" height="1" fill="#701010"/><rect x="182" y="101" width="2" height="1" fill="#ff4a1a"/><rect x="181" y="102" width="4" height="1" fill="#d62828"/><rect x="181" y="103" width="4" height="1" fill="#aa1010"/><rect x="182" y="104" width="2" height="1" fill="#701010"/><rect x="199" y="92" width="2" height="1" fill="#ffe06b"/><rect x="199" y="93" width="2" height="1" fill="#ffaa22"/><rect x="198" y="94" width="4" height="1" fill="#ff6b1a"/><rect x="198" y="95" width="4" height="1" fill="#ff4a1a"/><rect x="197" y="96" width="6" height="1" fill="#ff4a1a"/><rect x="199" y="96" width="2" height="1" fill="#ffe06b"/><rect x="197" y="97" width="6" height="1" fill="#ffaa22"/><rect x="196" y="98" width="8" height="1" fill="#d62828"/><rect x="198" y="98" width="4" height="1" fill="#ff6b1a"/><rect x="196" y="99" width="8" height="1" fill="#d62828"/><rect x="198" y="99" width="4" height="1" fill="#ff4a1a"/><rect x="195" y="100" width="10" height="1" fill="#aa1010"/><rect x="197" y="100" width="6" height="1" fill="#d62828"/><rect x="195" y="101" width="10" height="1" fill="#aa1010"/><rect x="198" y="101" width="4" height="1" fill="#d62828"/><rect x="196" y="102" width="8" height="1" fill="#aa1010"/><rect x="196" y="103" width="8" height="1" fill="#aa1010"/><rect x="197" y="104" width="6" height="1" fill="#701010"/><rect x="198" y="105" width="4" height="1" fill="#701010"/><rect x="199" y="106" width="2" height="1" fill="#701010"/><rect x="227" y="102" width="2" height="1" fill="#ff4a1a"/><rect x="226" y="103" width="4" height="1" fill="#d62828"/><rect x="226" y="104" width="4" height="1" fill="#aa1010"/><rect x="227" y="105" width="2" height="1" fill="#701010"/><rect x="26" y="45" width="3" height="1" fill="#ff3838" opacity="0.8"/><rect x="31" y="45" width="3" height="1" fill="#ff3838" opacity="0.8"/><rect x="25" y="46" width="10" height="1" fill="#ff3838" opacity="0.8"/><rect x="27" y="46" width="1" height="1" fill="#ff9b9b" opacity="0.8"/><rect x="32" y="46" width="1" height="1" fill="#ff9b9b" opacity="0.8"/><rect x="25" y="47" width="10" height="1" fill="#d62828" opacity="0.8"/><rect x="26" y="48" width="8" height="1" fill="#d62828" opacity="0.8"/><rect x="27" y="49" width="6" height="1" fill="#aa1010" opacity="0.8"/><rect x="28" y="50" width="4" height="1" fill="#aa1010" opacity="0.8"/><rect x="29" y="51" width="2" height="1" fill="#701010" opacity="0.8"/><rect x="79" y="28" width="3" height="1" fill="#ff3838" opacity="0.55"/><rect x="84" y="28" width="3" height="1" fill="#ff3838" opacity="0.55"/><rect x="78" y="29" width="10" height="1" fill="#ff3838" opacity="0.55"/><rect x="80" y="29" width="1" height="1" fill="#ff9b9b" opacity="0.55"/><rect x="85" y="29" width="1" height="1" fill="#ff9b9b" opacity="0.55"/><rect x="78" y="30" width="10" height="1" fill="#d62828" opacity="0.55"/><rect x="79" y="31" width="8" height="1" fill="#d62828" opacity="0.55"/><rect x="80" y="32" width="6" height="1" fill="#aa1010" opacity="0.55"/><rect x="81" y="33" width="4" height="1" fill="#aa1010" opacity="0.55"/><rect x="82" y="34" width="2" height="1" fill="#701010" opacity="0.55"/><rect x="119" y="52" width="3" height="1" fill="#ff3838" opacity="0.7"/><rect x="124" y="52" width="3" height="1" fill="#ff3838" opacity="0.7"/><rect x="118" y="53" width="10" height="1" fill="#ff3838" opacity="0.7"/><rect x="120" y="53" width="1" height="1" fill="#ff9b9b" opacity="0.7"/><rect x="125" y="53" width="1" height="1" fill="#ff9b9b" opacity="0.7"/><rect x="118" y="54" width="10" height="1" fill="#d62828" opacity="0.7"/><rect x="119" y="55" width="8" height="1" fill="#d62828" opacity="0.7"/><rect x="120" y="56" width="6" height="1" fill="#aa1010" opacity="0.7"/><rect x="121" y="57" width="4" height="1" fill="#aa1010" opacity="0.7"/><rect x="122" y="58" width="2" height="1" fill="#701010" opacity="0.7"/><rect x="159" y="20" width="3" height="1" fill="#ff3838" opacity="0.4"/><rect x="164" y="20" width="3" height="1" fill="#ff3838" opacity="0.4"/><rect x="158" y="21" width="10" height="1" fill="#ff3838" opacity="0.4"/><rect x="160" y="21" width="1" height="1" fill="#ff9b9b" opacity="0.4"/><rect x="165" y="21" width="1" height="1" fill="#ff9b9b" opacity="0.4"/><rect x="158" y="22" width="10" height="1" fill="#d62828" opacity="0.4"/><rect x="159" y="23" width="8" height="1" fill="#d62828" opacity="0.4"/><rect x="160" y="24" width="6" height="1" fill="#aa1010" opacity="0.4"/><rect x="161" y="25" width="4" height="1" fill="#aa1010" opacity="0.4"/><rect x="162" y="26" width="2" height="1" fill="#701010" opacity="0.4"/><rect x="199" y="38" width="3" height="1" fill="#ff3838" opacity="0.55"/><rect x="204" y="38" width="3" height="1" fill="#ff3838" opacity="0.55"/><rect x="198" y="39" width="10" height="1" fill="#ff3838" opacity="0.55"/><rect x="200" y="39" width="1" height="1" fill="#ff9b9b" opacity="0.55"/><rect x="205" y="39" width="1" height="1" fill="#ff9b9b" opacity="0.55"/><rect x="198" y="40" width="10" height="1" fill="#d62828" opacity="0.55"/><rect x="199" y="41" width="8" height="1" fill="#d62828" opacity="0.55"/><rect x="200" y="42" width="6" height="1" fill="#aa1010" opacity="0.55"/><rect x="201" y="43" width="4" height="1" fill="#aa1010" opacity="0.55"/><rect x="202" y="44" width="2" height="1" fill="#701010" opacity="0.55"/><rect x="46" y="15" width="3" height="1" fill="#ff3838" opacity="0.3"/><rect x="51" y="15" width="3" height="1" fill="#ff3838" opacity="0.3"/><rect x="45" y="16" width="10" height="1" fill="#ff3838" opacity="0.3"/><rect x="47" y="16" width="1" height="1" fill="#ff9b9b" opacity="0.3"/><rect x="52" y="16" width="1" height="1" fill="#ff9b9b" opacity="0.3"/><rect x="45" y="17" width="10" height="1" fill="#d62828" opacity="0.3"/><rect x="46" y="18" width="8" height="1" fill="#d62828" opacity="0.3"/><rect x="47" y="19" width="6" height="1" fill="#aa1010" opacity="0.3"/><rect x="48" y="20" width="4" height="1" fill="#aa1010" opacity="0.3"/><rect x="49" y="21" width="2" height="1" fill="#701010" opacity="0.3"/><rect x="211" y="58" width="3" height="1" fill="#ff3838" opacity="0.45"/><rect x="216" y="58" width="3" height="1" fill="#ff3838" opacity="0.45"/><rect x="210" y="59" width="10" height="1" fill="#ff3838" opacity="0.45"/><rect x="212" y="59" width="1" height="1" fill="#ff9b9b" opacity="0.45"/><rect x="217" y="59" width="1" height="1" fill="#ff9b9b" opacity="0.45"/><rect x="210" y="60" width="10" height="1" fill="#d62828" opacity="0.45"/><rect x="211" y="61" width="8" height="1" fill="#d62828" opacity="0.45"/><rect x="212" y="62" width="6" height="1" fill="#aa1010" opacity="0.45"/><rect x="213" y="63" width="4" height="1" fill="#aa1010" opacity="0.45"/><rect x="214" y="64" width="2" height="1" fill="#701010" opacity="0.45"/><rect x="139" y="68" width="3" height="1" fill="#ff3838" opacity="0.65"/><rect x="144" y="68" width="3" height="1" fill="#ff3838" opacity="0.65"/><rect x="138" y="69" width="10" height="1" fill="#ff3838" opacity="0.65"/><rect x="140" y="69" width="1" height="1" fill="#ff9b9b" opacity="0.65"/><rect x="145" y="69" width="1" height="1" fill="#ff9b9b" opacity="0.65"/><rect x="138" y="70" width="10" height="1" fill="#d62828" opacity="0.65"/><rect x="139" y="71" width="8" height="1" fill="#d62828" opacity="0.65"/><rect x="140" y="72" width="6" height="1" fill="#aa1010" opacity="0.65"/><rect x="141" y="73" width="4" height="1" fill="#aa1010" opacity="0.65"/><rect x="142" y="74" width="2" height="1" fill="#701010" opacity="0.65"/><rect x="93" y="62" width="3" height="1" fill="#ff3838" opacity="0.5"/><rect x="98" y="62" width="3" height="1" fill="#ff3838" opacity="0.5"/><rect x="92" y="63" width="10" height="1" fill="#ff3838" opacity="0.5"/><rect x="94" y="63" width="1" height="1" fill="#ff9b9b" opacity="0.5"/><rect x="99" y="63" width="1" height="1" fill="#ff9b9b" opacity="0.5"/><rect x="92" y="64" width="10" height="1" fill="#d62828" opacity="0.5"/><rect x="93" y="65" width="8" height="1" fill="#d62828" opacity="0.5"/><rect x="94" y="66" width="6" height="1" fill="#aa1010" opacity="0.5"/><rect x="95" y="67" width="4" height="1" fill="#aa1010" opacity="0.5"/><rect x="96" y="68" width="2" height="1" fill="#701010" opacity="0.5"/></svg>